<svg width="80" height="80" viewBox="0 0 80 80" fill="none" xmlns="http://www.w3.org/2000/svg">
<path d="M40.0442 3C19.5852 3 3 19.5852 3 40.0442C3 60.5029 19.5852 77.0884 40.0442 77.0884C60.5029 77.0884 77.0884 60.5029 77.0884 40.0442C77.0884 19.5852 60.5029 3 40.0442 3Z" stroke="#2C2C2C" stroke-width="5.55663" stroke-linecap="round" stroke-linejoin="round"/>
<path d="M11.4127 63.5513C11.4127 63.5513 19.6699 53.0096 40.0442 53.0096C60.4185 53.0096 68.676 63.5513 68.676 63.5513" stroke="#2C2C2C" stroke-width="5.55663" stroke-linecap="round" stroke-linejoin="round"/>
<path d="M40.0442 40.0442C46.182 40.0442 51.1574 35.0688 51.1574 28.9309C51.1574 22.7933 46.182 17.8177 40.0442 17.8177C33.9063 17.8177 28.9309 22.7933 28.9309 28.9309C28.9309 35.0688 33.9063 40.0442 40.0442 40.0442Z" stroke="#2C2C2C" stroke-width="5.55663" stroke-linecap="round" stroke-linejoin="round"/>
</svg>
